<?xml version="1.0" encoding="UTF-8"?>
<svg xmlns="http://www.w3.org/2000/svg" xmlns:xlink="http://www.w3.org/1999/xlink" width="421pt" height="487pt" viewBox="0 0 421 487" version="1.1">
<g id="surface1">
<path style=" stroke:none;fill-rule:nonzero;fill:rgb(100%,100%,100%);fill-opacity:1;" d="M -3.78125 -4.78125 L 5.78125 -4.78125 L 5.78125 4.78125 L -3.78125 4.78125 L -3.78125 -4.78125 "/>
<path style=" stroke:none;fill-rule:nonzero;fill:rgb(100%,100%,100%);fill-opacity:1;" d="M 5.03125 -5.96875 L 18.96875 -5.96875 L 18.96875 7.96875 L 5.03125 7.96875 L 5.03125 -5.96875 "/>
<path style=" stroke:none;fill-rule:nonzero;fill:rgb(100%,100%,100%);fill-opacity:1;" d="M 18.308594 -4.691406 L 27.691406 -4.691406 L 27.691406 4.691406 L 18.308594 4.691406 L 18.308594 -4.691406 "/>
<path style=" stroke:none;fill-rule:nonzero;fill:rgb(100%,100%,100%);fill-opacity:1;" d="M 28.472656 -6.527344 L 43.527344 -6.527344 L 43.527344 8.527344 L 28.472656 8.527344 L 28.472656 -6.527344 "/>
<path style=" stroke:none;fill-rule:nonzero;fill:rgb(100%,100%,100%);fill-opacity:1;" d="M 44.648438 -9.351562 L 65.351562 -9.351562 L 65.351562 11.351562 L 44.648438 11.351562 L 44.648438 -9.351562 "/>
<path style=" stroke:none;fill-rule:nonzero;fill:rgb(100%,100%,100%);fill-opacity:1;" d="M 66.21875 -10.78125 L 87.78125 -10.78125 L 87.78125 10.78125 L 66.21875 10.78125 L 66.21875 -10.78125 "/>
<path style=" stroke:none;fill-rule:nonzero;fill:rgb(100%,100%,100%);fill-opacity:1;" d="M 87.058594 -5.941406 L 100.941406 -5.941406 L 100.941406 7.941406 L 87.058594 7.941406 L 87.058594 -5.941406 "/>
<path style=" stroke:none;fill-rule:nonzero;fill:rgb(100%,100%,100%);fill-opacity:1;" d="M 100.710938 -9.289062 L 121.289062 -9.289062 L 121.289062 11.289062 L 100.710938 11.289062 L 100.710938 -9.289062 "/>
<path style=" stroke:none;fill-rule:nonzero;fill:rgb(100%,100%,100%);fill-opacity:1;" d="M 121.066406 -8.933594 L 138.933594 -8.933594 L 138.933594 8.933594 L 121.066406 8.933594 L 121.066406 -8.933594 "/>
<path style=" stroke:none;fill-rule:nonzero;fill:rgb(100%,100%,100%);fill-opacity:1;" d="M 138.929688 -5.070312 L 149.070312 -5.070312 L 149.070312 5.070312 L 138.929688 5.070312 L 138.929688 -5.070312 "/>
<path style=" stroke:none;fill-rule:nonzero;fill:rgb(97.254902%,97.254902%,97.254902%);fill-opacity:1;" d="M 150.21875 -10.78125 L 171.78125 -10.78125 L 171.78125 10.78125 L 150.21875 10.78125 L 150.21875 -10.78125 "/>
<path style=" stroke:none;fill-rule:nonzero;fill:rgb(96.862745%,96.862745%,96.862745%);fill-opacity:1;" d="M 171.425781 -3.574219 L 180.574219 -3.574219 L 180.574219 5.574219 L 171.425781 5.574219 L 171.425781 -3.574219 "/>
<path style=" stroke:none;fill-rule:nonzero;fill:rgb(38.431373%,38.431373%,43.529412%);fill-opacity:1;" d="M 181.15625 -5.84375 L 194.84375 -5.84375 L 194.84375 7.84375 L 181.15625 7.84375 L 181.15625 -5.84375 "/>
<path style=" stroke:none;fill-rule:nonzero;fill:rgb(31.764707%,29.411766%,34.117648%);fill-opacity:1;" d="M 195.683594 -6.316406 L 208.316406 -6.316406 L 208.316406 6.316406 L 195.683594 6.316406 L 195.683594 -6.316406 "/>
<path style=" stroke:none;fill-rule:nonzero;fill:rgb(54.901963%,54.509807%,58.039218%);fill-opacity:1;" d="M 209.90625 -2.09375 L 216.09375 -2.09375 L 216.09375 4.09375 L 209.90625 4.09375 L 209.90625 -2.09375 "/>
<path style=" stroke:none;fill-rule:nonzero;fill:rgb(95.686275%,95.686275%,96.078432%);fill-opacity:1;" d="M 217.234375 -3.765625 L 226.765625 -3.765625 L 226.765625 5.765625 L 217.234375 5.765625 L 217.234375 -3.765625 "/>
<path style=" stroke:none;fill-rule:nonzero;fill:rgb(100%,100%,100%);fill-opacity:1;" d="M 226.070312 -5.929688 L 237.929688 -5.929688 L 237.929688 5.929688 L 226.070312 5.929688 L 226.070312 -5.929688 "/>
<path style=" stroke:none;fill-rule:nonzero;fill:rgb(100%,100%,100%);fill-opacity:1;" d="M 238.558594 -2.441406 L 245.441406 -2.441406 L 245.441406 4.441406 L 238.558594 4.441406 L 238.558594 -2.441406 "/>
<path style=" stroke:none;fill-rule:nonzero;fill:rgb(100%,100%,100%);fill-opacity:1;" d="M 245.757812 -2.242188 L 252.242188 -2.242188 L 252.242188 4.242188 L 245.757812 4.242188 L 245.757812 -2.242188 "/>
<path style=" stroke:none;fill-rule:nonzero;fill:rgb(100%,100%,100%);fill-opacity:1;" d="M 253.324219 -2.675781 L 260.675781 -2.675781 L 260.675781 4.675781 L 253.324219 4.675781 L 253.324219 -2.675781 "/>
<path style=" stroke:none;fill-rule:nonzero;fill:rgb(100%,100%,100%);fill-opacity:1;" d="M 260.652344 -7.347656 L 275.347656 -7.347656 L 275.347656 7.347656 L 260.652344 7.347656 L 260.652344 -7.347656 "/>
<path style=" stroke:none;fill-rule:nonzero;fill:rgb(100%,100%,100%);fill-opacity:1;" d="M 276.285156 -5.714844 L 287.714844 -5.714844 L 287.714844 5.714844 L 276.285156 5.714844 L 276.285156 -5.714844 "/>
<path style=" stroke:none;fill-rule:nonzero;fill:rgb(100%,100%,100%);fill-opacity:1;" d="M 287.601562 -3.398438 L 296.398438 -3.398438 L 296.398438 5.398438 L 287.601562 5.398438 L 287.601562 -3.398438 "/>
<path style=" stroke:none;fill-rule:nonzero;fill:rgb(100%,100%,100%);fill-opacity:1;" d="M 297.6875 -4.3125 L 308.3125 -4.3125 L 308.3125 6.3125 L 297.6875 6.3125 L 297.6875 -4.3125 "/>
<path style=" stroke:none;fill-rule:nonzero;fill:rgb(100%,100%,100%);fill-opacity:1;" d="M 309.949219 -4.050781 L 320.050781 -4.050781 L 320.050781 6.050781 L 309.949219 6.050781 L 309.949219 -4.050781 "/>
<path style=" stroke:none;fill-rule:nonzero;fill:rgb(100%,100%,100%);fill-opacity:1;" d="M 320.0625 -10.9375 L 341.9375 -10.9375 L 341.9375 10.9375 L 320.0625 10.9375 L 320.0625 -10.9375 "/>
<path style=" stroke:none;fill-rule:nonzero;fill:rgb(100%,100%,100%);fill-opacity:1;" d="M 341.125 -4.875 L 350.875 -4.875 L 350.875 4.875 L 341.125 4.875 L 341.125 -4.875 "/>
<path style=" stroke:none;fill-rule:nonzero;fill:rgb(100%,100%,100%);fill-opacity:1;" d="M 350.800781 -3.199219 L 357.199219 -3.199219 L 357.199219 3.199219 L 350.800781 3.199219 L 350.800781 -3.199219 "/>
<path style=" stroke:none;fill-rule:nonzero;fill:rgb(100%,100%,100%);fill-opacity:1;" d="M 358.191406 -6.808594 L 371.808594 -6.808594 L 371.808594 6.808594 L 358.191406 6.808594 L 358.191406 -6.808594 "/>
<path style=" stroke:none;fill-rule:nonzero;fill:rgb(100%,100%,100%);fill-opacity:1;" d="M 372.191406 -7.808594 L 389.808594 -7.808594 L 389.808594 9.808594 L 372.191406 9.808594 L 372.191406 -7.808594 "/>
<path style=" stroke:none;fill-rule:nonzero;fill:rgb(100%,100%,100%);fill-opacity:1;" d="M 390.234375 -3.765625 L 399.765625 -3.765625 L 399.765625 5.765625 L 390.234375 5.765625 L 390.234375 -3.765625 "/>
<path style=" stroke:none;fill-rule:nonzero;fill:rgb(100%,100%,100%);fill-opacity:1;" d="M 400.167969 -3.832031 L 409.832031 -3.832031 L 409.832031 5.832031 L 400.167969 5.832031 L 400.167969 -3.832031 "/>
<path style=" stroke:none;fill-rule:nonzero;fill:rgb(100%,100%,100%);fill-opacity:1;" d="M 410.640625 -3.359375 L 417.359375 -3.359375 L 417.359375 3.359375 L 410.640625 3.359375 L 410.640625 -3.359375 "/>
<path style=" stroke:none;fill-rule:nonzero;fill:rgb(100%,100%,100%);fill-opacity:1;" d="M -4.722656 4.277344 L 4.722656 4.277344 L 4.722656 13.722656 L -4.722656 13.722656 L -4.722656 4.277344 "/>
<path style=" stroke:none;fill-rule:nonzero;fill:rgb(100%,100%,100%);fill-opacity:1;" d="M 18.996094 4.996094 L 27.003906 4.996094 L 27.003906 13.003906 L 18.996094 13.003906 L 18.996094 4.996094 "/>
<path style=" stroke:none;fill-rule:nonzero;fill:rgb(100%,100%,100%);fill-opacity:1;" d="M 408.359375 3.359375 L 419.640625 3.359375 L 419.640625 14.640625 L 408.359375 14.640625 L 408.359375 3.359375 "/>
<path style=" stroke:none;fill-rule:nonzero;fill:rgb(5.098039%,3.529412%,8.235294%);fill-opacity:1;" d="M 208.539062 4.539062 L 217.460938 4.539062 L 217.460938 13.460938 L 208.539062 13.460938 L 208.539062 4.539062 "/>
<path style=" stroke:none;fill-rule:nonzero;fill:rgb(99.215686%,99.215686%,99.215686%);fill-opacity:1;" d="M 234.671875 4.671875 L 247.328125 4.671875 L 247.328125 17.328125 L 234.671875 17.328125 L 234.671875 4.671875 "/>
<path style=" stroke:none;fill-rule:nonzero;fill:rgb(100%,100%,100%);fill-opacity:1;" d="M 351.449219 3.449219 L 358.550781 3.449219 L 358.550781 10.550781 L 351.449219 10.550781 L 351.449219 3.449219 "/>
<path style=" stroke:none;fill-rule:nonzero;fill:rgb(100%,100%,100%);fill-opacity:1;" d="M 138.953125 5.953125 L 145.046875 5.953125 L 145.046875 12.046875 L 138.953125 12.046875 L 138.953125 5.953125 "/>
<path style=" stroke:none;fill-rule:nonzero;fill:rgb(2.352941%,1.960784%,8.235294%);fill-opacity:1;" d="M 171.441406 5.441406 L 180.558594 5.441406 L 180.558594 14.558594 L 171.441406 14.558594 L 171.441406 5.441406 "/>
<path style=" stroke:none;fill-rule:nonzero;fill:rgb(33.333334%,32.549021%,37.254903%);fill-opacity:1;" d="M 218.800781 5.800781 L 233.199219 5.800781 L 233.199219 20.199219 L 218.800781 20.199219 L 218.800781 5.800781 "/>
<path style=" stroke:none;fill-rule:nonzero;fill:rgb(100%,100%,100%);fill-opacity:1;" d="M 247.054688 4.054688 L 256.945312 4.054688 L 256.945312 13.945312 L 247.054688 13.945312 L 247.054688 4.054688 "/>
<path style=" stroke:none;fill-rule:nonzero;fill:rgb(100%,100%,100%);fill-opacity:1;" d="M 271.15625 5.15625 L 290.84375 5.15625 L 290.84375 24.84375 L 271.15625 24.84375 L 271.15625 5.15625 "/>
<path style=" stroke:none;fill-rule:nonzero;fill:rgb(100%,100%,100%);fill-opacity:1;" d="M 342.292969 4.292969 L 351.707031 4.292969 L 351.707031 13.707031 L 342.292969 13.707031 L 342.292969 4.292969 "/>
<path style=" stroke:none;fill-rule:nonzero;fill:rgb(72.941178%,73.333335%,74.901962%);fill-opacity:1;" d="M 189.011719 6.011719 L 204.988281 6.011719 L 204.988281 21.988281 L 189.011719 21.988281 L 189.011719 6.011719 "/>
<path style=" stroke:none;fill-rule:nonzero;fill:rgb(100%,100%,100%);fill-opacity:1;" d="M 389.679688 5.679688 L 398.320312 5.679688 L 398.320312 14.320312 L 389.679688 14.320312 L 389.679688 5.679688 "/>
<path style=" stroke:none;fill-rule:nonzero;fill:rgb(100%,100%,100%);fill-opacity:1;" d="M 290.992188 6.992188 L 297.007812 6.992188 L 297.007812 13.007812 L 290.992188 13.007812 L 290.992188 6.992188 "/>
<path style=" stroke:none;fill-rule:nonzero;fill:rgb(100%,100%,100%);fill-opacity:1;" d="M 297.402344 7.402344 L 318.597656 7.402344 L 318.597656 28.597656 L 297.402344 28.597656 L 297.402344 7.402344 "/>
<path style=" stroke:none;fill-rule:nonzero;fill:rgb(100%,100%,100%);fill-opacity:1;" d="M 359.410156 6.410156 L 372.589844 6.410156 L 372.589844 19.589844 L 359.410156 19.589844 L 359.410156 6.410156 "/>
<path style=" stroke:none;fill-rule:nonzero;fill:rgb(100%,100%,100%);fill-opacity:1;" d="M 399.847656 5.847656 L 406.152344 5.847656 L 406.152344 12.152344 L 399.847656 12.152344 L 399.847656 5.847656 "/>
<path style=" stroke:none;fill-rule:nonzero;fill:rgb(100%,100%,100%);fill-opacity:1;" d="M 26.683594 9.683594 L 43.316406 9.683594 L 43.316406 26.316406 L 26.683594 26.316406 L 26.683594 9.683594 "/>
<path style=" stroke:none;fill-rule:nonzero;fill:rgb(100%,100%,100%);fill-opacity:1;" d="M 82.039062 9.039062 L 99.960938 9.039062 L 99.960938 26.960938 L 82.039062 26.960938 L 82.039062 9.039062 "/>
<path style=" stroke:none;fill-rule:nonzero;fill:rgb(100%,100%,100%);fill-opacity:1;" d="M 4.382812 8.382812 L 13.617188 8.382812 L 13.617188 17.617188 L 4.382812 17.617188 L 4.382812 8.382812 "/>
<path style=" stroke:none;fill-rule:nonzero;fill:rgb(100%,100%,100%);fill-opacity:1;" d="M 117.441406 9.441406 L 136.558594 9.441406 L 136.558594 28.558594 L 117.441406 28.558594 L 117.441406 9.441406 "/>
<path style=" stroke:none;fill-rule:nonzero;fill:rgb(100%,100%,100%);fill-opacity:1;" d="M 257.105469 7.105469 L 268.894531 7.105469 L 268.894531 18.894531 L 257.105469 18.894531 L 257.105469 7.105469 "/>
<path style=" stroke:none;fill-rule:nonzero;fill:rgb(100%,100%,100%);fill-opacity:1;" d="M 59.277344 10.277344 L 76.722656 10.277344 L 76.722656 27.722656 L 59.277344 27.722656 L 59.277344 10.277344 "/>
<path style=" stroke:none;fill-rule:nonzero;fill:rgb(100%,100%,100%);fill-opacity:1;" d="M 144.578125 10.578125 L 159.421875 10.578125 L 159.421875 25.421875 L 144.578125 25.421875 L 144.578125 10.578125 "/>
<path style=" stroke:none;fill-rule:nonzero;fill:rgb(12.156863%,11.764706%,18.039216%);fill-opacity:1;" d="M 181.308594 7.308594 L 188.691406 7.308594 L 188.691406 14.691406 L 181.308594 14.691406 L 181.308594 7.308594 "/>
<path style=" stroke:none;fill-rule:nonzero;fill:rgb(100%,100%,100%);fill-opacity:1;" d="M 372.601562 9.601562 L 381.398438 9.601562 L 381.398438 18.398438 L 372.601562 18.398438 L 372.601562 9.601562 "/>
<path style=" stroke:none;fill-rule:nonzero;fill:rgb(93.333334%,93.333334%,93.333334%);fill-opacity:1;" d="M 160.191406 10.191406 L 169.808594 10.191406 L 169.808594 19.808594 L 160.191406 19.808594 L 160.191406 10.191406 "/>
<path style=" stroke:none;fill-rule:nonzero;fill:rgb(100%,100%,100%);fill-opacity:1;" d="M 319.664062 10.664062 L 330.335938 10.664062 L 330.335938 21.335938 L 319.664062 21.335938 L 319.664062 10.664062 "/>
<path style=" stroke:none;fill-rule:nonzero;fill:rgb(100%,100%,100%);fill-opacity:1;" d="M 330.539062 10.539062 L 341.460938 10.539062 L 341.460938 21.460938 L 330.539062 21.460938 L 330.539062 10.539062 "/>
<path style=" stroke:none;fill-rule:nonzero;fill:rgb(100%,100%,100%);fill-opacity:1;" d="M 43.550781 12.550781 L 58.449219 12.550781 L 58.449219 27.449219 L 43.550781 27.449219 L 43.550781 12.550781 "/>
<path style=" stroke:none;fill-rule:nonzero;fill:rgb(100%,100%,100%);fill-opacity:1;" d="M 100.839844 12.839844 L 115.160156 12.839844 L 115.160156 27.160156 L 100.839844 27.160156 L 100.839844 12.839844 "/>
<path style=" stroke:none;fill-rule:nonzero;fill:rgb(32.549021%,21.960784%,26.274511%);fill-opacity:1;" d="M 168.570312 15.570312 L 189.429688 15.570312 L 189.429688 36.429688 L 168.570312 36.429688 L 168.570312 15.570312 "/>
<path style=" stroke:none;fill-rule:nonzero;fill:rgb(100%,100%,100%);fill-opacity:1;" d="M 342.003906 14.003906 L 359.996094 14.003906 L 359.996094 31.996094 L 342.003906 31.996094 L 342.003906 14.003906 "/>
<path style=" stroke:none;fill-rule:nonzero;fill:rgb(4.705882%,3.921569%,9.411765%);fill-opacity:1;" d="M 204.722656 13.722656 L 217.277344 13.722656 L 217.277344 26.277344 L 204.722656 26.277344 L 204.722656 13.722656 "/>
<path style=" stroke:none;fill-rule:nonzero;fill:rgb(100%,100%,100%);fill-opacity:1;" d="M 380.3125 14.3125 L 399.6875 14.3125 L 399.6875 33.6875 L 380.3125 33.6875 L 380.3125 14.3125 "/>
<path style=" stroke:none;fill-rule:nonzero;fill:rgb(100%,100%,100%);fill-opacity:1;" d="M 11.976562 15.976562 L 26.023438 15.976562 L 26.023438 30.023438 L 11.976562 30.023438 L 11.976562 15.976562 "/>
<path style=" stroke:none;fill-rule:nonzero;fill:rgb(100%,100%,100%);fill-opacity:1;" d="M 399.136719 12.136719 L 408.863281 12.136719 L 408.863281 21.863281 L 399.136719 21.863281 L 399.136719 12.136719 "/>
<path style=" stroke:none;fill-rule:nonzero;fill:rgb(100%,100%,100%);fill-opacity:1;" d="M -4.699219 13.300781 L 4.699219 13.300781 L 4.699219 22.699219 L -4.699219 22.699219 L -4.699219 13.300781 "/>
<path style=" stroke:none;fill-rule:nonzero;fill:rgb(100%,100%,100%);fill-opacity:1;" d="M 409.496094 14.496094 L 420.503906 14.496094 L 420.503906 25.503906 L 409.496094 25.503906 L 409.496094 14.496094 "/>
<path style=" stroke:none;fill-rule:nonzero;fill:rgb(100%,100%,100%);fill-opacity:1;" d="M 136.457031 12.457031 L 143.542969 12.457031 L 143.542969 19.542969 L 136.457031 19.542969 L 136.457031 12.457031 "/>
<path style=" stroke:none;fill-rule:nonzero;fill:rgb(52.549022%,51.764709%,55.29412%);fill-opacity:1;" d="M 232.175781 17.175781 L 249.824219 17.175781 L 249.824219 34.824219 L 232.175781 34.824219 L 232.175781 17.175781 "/>
<path style=" stroke:none;fill-rule:nonzero;fill:rgb(100%,100%,100%);fill-opacity:1;" d="M 250.601562 14.601562 L 257.398438 14.601562 L 257.398438 21.398438 L 250.601562 21.398438 L 250.601562 14.601562 "/>
<path style=" stroke:none;fill-rule:nonzero;fill:rgb(96.470588%,96.470588%,96.470588%);fill-opacity:1;" d="M 252.828125 20.828125 L 269.171875 20.828125 L 269.171875 37.171875 L 252.828125 37.171875 L 252.828125 20.828125 "/>
<path style=" stroke:none;fill-rule:nonzero;fill:rgb(100%,100%,100%);fill-opacity:1;" d="M 359.070312 19.070312 L 378.929688 19.070312 L 378.929688 38.929688 L 359.070312 38.929688 L 359.070312 19.070312 "/>
<path style=" stroke:none;fill-rule:nonzero;fill:rgb(100%,100%,100%);fill-opacity:1;" d="M 319.625 21.625 L 336.375 21.625 L 336.375 38.375 L 319.625 38.375 L 319.625 21.625 "/>
<path style=" stroke:none;fill-rule:nonzero;fill:rgb(5.490196%,5.098039%,8.235294%);fill-opacity:1;" d="M 218.332031 20.332031 L 231.667969 20.332031 L 231.667969 33.667969 L 218.332031 33.667969 L 218.332031 20.332031 "/>
<path style=" stroke:none;fill-rule:nonzero;fill:rgb(3.137255%,0.392157%,5.490196%);fill-opacity:1;" d="M 190.234375 21.234375 L 205.765625 21.234375 L 205.765625 36.765625 L 190.234375 36.765625 L 190.234375 21.234375 "/>
<path style=" stroke:none;fill-rule:nonzero;fill:rgb(100%,100%,100%);fill-opacity:1;" d="M -5.933594 23.066406 L 7.933594 23.066406 L 7.933594 36.933594 L -5.933594 36.933594 L -5.933594 23.066406 "/>
<path style=" stroke:none;fill-rule:nonzero;fill:rgb(100%,100%,100%);fill-opacity:1;" d="M 290.582031 14.582031 L 297.417969 14.582031 L 297.417969 21.417969 L 290.582031 21.417969 L 290.582031 14.582031 "/>
<path style=" stroke:none;fill-rule:nonzero;fill:rgb(100%,100%,100%);fill-opacity:1;" d="M 270.515625 24.515625 L 281.484375 24.515625 L 281.484375 35.484375 L 270.515625 35.484375 L 270.515625 24.515625 "/>
<path style=" stroke:none;fill-rule:nonzero;fill:rgb(100%,100%,100%);fill-opacity:1;" d="M 25.71875 26.71875 L 44.28125 26.71875 L 44.28125 45.28125 L 25.71875 45.28125 L 25.71875 26.71875 "/>
<path style=" stroke:none;fill-rule:nonzero;fill:rgb(100%,100%,100%);fill-opacity:1;" d="M 135.222656 25.222656 L 154.777344 25.222656 L 154.777344 44.777344 L 135.222656 44.777344 L 135.222656 25.222656 "/>
<path style=" stroke:none;fill-rule:nonzero;fill:rgb(100%,100%,100%);fill-opacity:1;" d="M 282.742188 25.742188 L 297.257812 25.742188 L 297.257812 40.257812 L 282.742188 40.257812 L 282.742188 25.742188 "/>
<path style=" stroke:none;fill-rule:nonzero;fill:rgb(100%,100%,100%);fill-opacity:1;" d="M 68.703125 26.703125 L 87.296875 26.703125 L 87.296875 45.296875 L 68.703125 45.296875 L 68.703125 26.703125 "/>
<path style=" stroke:none;fill-rule:nonzero;fill:rgb(100%,100%,100%);fill-opacity:1;" d="M 87.871094 26.871094 L 104.128906 26.871094 L 104.128906 43.128906 L 87.871094 43.128906 L 87.871094 26.871094 "/>
<path style=" stroke:none;fill-rule:nonzero;fill:rgb(100%,100%,100%);fill-opacity:1;" d="M 399.359375 25.359375 L 416.640625 25.359375 L 416.640625 42.640625 L 399.359375 42.640625 L 399.359375 25.359375 "/>
<path style=" stroke:none;fill-rule:nonzero;fill:rgb(100%,100%,100%);fill-opacity:1;" d="M 45.058594 27.058594 L 60.941406 27.058594 L 60.941406 42.941406 L 45.058594 42.941406 L 45.058594 27.058594 "/>
<path style=" stroke:none;fill-rule:nonzero;fill:rgb(100%,100%,100%);fill-opacity:1;" d="M 104.90625 27.90625 L 121.09375 27.90625 L 121.09375 44.09375 L 104.90625 44.09375 L 104.90625 27.90625 "/>
<path style=" stroke:none;fill-rule:nonzero;fill:rgb(1.176471%,1.176471%,3.921569%);fill-opacity:1;" d="M 155.988281 26.988281 L 168.011719 26.988281 L 168.011719 39.011719 L 155.988281 39.011719 L 155.988281 26.988281 "/>
<path style=" stroke:none;fill-rule:nonzero;fill:rgb(61.176473%,41.568628%,40.784314%);fill-opacity:1;" d="M 205.5 26.5 L 216.5 26.5 L 216.5 37.5 L 205.5 37.5 L 205.5 26.5 "/>
<path style=" stroke:none;fill-rule:nonzero;fill:rgb(100%,100%,100%);fill-opacity:1;" d="M 298.558594 29.558594 L 317.441406 29.558594 L 317.441406 48.441406 L 298.558594 48.441406 L 298.558594 29.558594 "/>
<path style=" stroke:none;fill-rule:nonzero;fill:rgb(100%,100%,100%);fill-opacity:1;" d="M 122.375 28.375 L 133.625 28.375 L 133.625 39.625 L 122.375 39.625 L 122.375 28.375 "/>
<path style=" stroke:none;fill-rule:nonzero;fill:rgb(100%,100%,100%);fill-opacity:1;" d="M 336.96875 32.96875 L 357.03125 32.96875 L 357.03125 53.03125 L 336.96875 53.03125 L 336.96875 32.96875 "/>
<path style=" stroke:none;fill-rule:nonzero;fill:rgb(100%,100%,100%);fill-opacity:1;" d="M 4.417969 33.417969 L 25.582031 33.417969 L 25.582031 54.582031 L 4.417969 54.582031 L 4.417969 33.417969 "/>
<path style=" stroke:none;fill-rule:nonzero;fill:rgb(70.588237%,46.27451%,47.058824%);fill-opacity:1;" d="M 216.195312 34.195312 L 227.804688 34.195312 L 227.804688 45.804688 L 216.195312 45.804688 L 216.195312 34.195312 "/>
<path style=" stroke:none;fill-rule:nonzero;fill:rgb(100%,100%,100%);fill-opacity:1;" d="M 378.191406 33.191406 L 389.808594 33.191406 L 389.808594 44.808594 L 378.191406 44.808594 L 378.191406 33.191406 "/>
<path style=" stroke:none;fill-rule:nonzero;fill:rgb(16.078432%,10.588235%,14.509805%);fill-opacity:1;" d="M 227.164062 35.164062 L 242.835938 35.164062 L 242.835938 50.835938 L 227.164062 50.835938 L 227.164062 35.164062 "/>
<path style=" stroke:none;fill-rule:nonzero;fill:rgb(100%,100%,100%);fill-opacity:1;" d="M 61.574219 28.574219 L 68.425781 28.574219 L 68.425781 35.425781 L 61.574219 35.425781 L 61.574219 28.574219 "/>
<path style=" stroke:none;fill-rule:nonzero;fill:rgb(70.19608%,47.450981%,46.666667%);fill-opacity:1;" d="M 166.023438 37.023438 L 181.976562 37.023438 L 181.976562 52.976562 L 166.023438 52.976562 L 166.023438 37.023438 "/>
<path style=" stroke:none;fill-rule:nonzero;fill:rgb(68.627453%,45.09804%,45.09804%);fill-opacity:1;" d="M 181.53125 36.53125 L 196.46875 36.53125 L 196.46875 51.46875 L 181.53125 51.46875 L 181.53125 36.53125 "/>
<path style=" stroke:none;fill-rule:nonzero;fill:rgb(100%,100%,100%);fill-opacity:1;" d="M 390.746094 33.746094 L 399.253906 33.746094 L 399.253906 42.253906 L 390.746094 42.253906 L 390.746094 33.746094 "/>
<path style=" stroke:none;fill-rule:nonzero;fill:rgb(19.215687%,20%,24.313726%);fill-opacity:1;" d="M 242.054688 34.054688 L 251.945312 34.054688 L 251.945312 43.945312 L 242.054688 43.945312 L 242.054688 34.054688 "/>
<path style=" stroke:none;fill-rule:nonzero;fill:rgb(69.411767%,45.882353%,46.666667%);fill-opacity:1;" d="M 196.628906 36.628906 L 207.371094 36.628906 L 207.371094 47.371094 L 196.628906 47.371094 L 196.628906 36.628906 "/>
<path style=" stroke:none;fill-rule:nonzero;fill:rgb(100%,100%,100%);fill-opacity:1;" d="M -2.480469 36.519531 L 4.480469 36.519531 L 4.480469 43.480469 L -2.480469 43.480469 L -2.480469 36.519531 "/>
<path style=" stroke:none;fill-rule:nonzero;fill:rgb(100%,100%,100%);fill-opacity:1;" d="M 251.140625 37.140625 L 272.859375 37.140625 L 272.859375 58.859375 L 251.140625 58.859375 L 251.140625 37.140625 "/>
<path style=" stroke:none;fill-rule:nonzero;fill:rgb(100%,100%,100%);fill-opacity:1;" d="M 358.78125 38.78125 L 379.21875 38.78125 L 379.21875 59.21875 L 358.78125 59.21875 L 358.78125 38.78125 "/>
<path style=" stroke:none;fill-rule:nonzero;fill:rgb(100%,100%,100%);fill-opacity:1;" d="M 121.785156 39.785156 L 132.214844 39.785156 L 132.214844 50.214844 L 121.785156 50.214844 L 121.785156 39.785156 "/>
<path style=" stroke:none;fill-rule:nonzero;fill:rgb(100%,100%,100%);fill-opacity:1;" d="M 318.695312 39.695312 L 335.304688 39.695312 L 335.304688 56.304688 L 318.695312 56.304688 L 318.695312 39.695312 "/>
<path style=" stroke:none;fill-rule:nonzero;fill:rgb(100%,100%,100%);fill-opacity:1;" d="M 272.246094 40.246094 L 293.753906 40.246094 L 293.753906 61.753906 L 272.246094 61.753906 L 272.246094 40.246094 "/>
<path style=" stroke:none;fill-rule:nonzero;fill:rgb(100%,100%,100%);fill-opacity:1;" d="M 44.277344 42.277344 L 59.722656 42.277344 L 59.722656 57.722656 L 44.277344 57.722656 L 44.277344 42.277344 "/>
<path style=" stroke:none;fill-rule:nonzero;fill:rgb(100%,100%,100%);fill-opacity:1;" d="M 85.632812 43.632812 L 102.367188 43.632812 L 102.367188 60.367188 L 85.632812 60.367188 L 85.632812 43.632812 "/>
<path style=" stroke:none;fill-rule:nonzero;fill:rgb(100%,100%,100%);fill-opacity:1;" d="M 384.449219 42.449219 L 405.550781 42.449219 L 405.550781 63.550781 L 384.449219 63.550781 L 384.449219 42.449219 "/>
<path style=" stroke:none;fill-rule:nonzero;fill:rgb(29.803923%,19.215687%,20.784314%);fill-opacity:1;" d="M 150.671875 43.671875 L 165.328125 43.671875 L 165.328125 58.328125 L 150.671875 58.328125 L 150.671875 43.671875 "/>
<path style=" stroke:none;fill-rule:nonzero;fill:rgb(100%,100%,100%);fill-opacity:1;" d="M 406.488281 42.488281 L 425.511719 42.488281 L 425.511719 61.511719 L 406.488281 61.511719 L 406.488281 42.488281 "/>
<path style=" stroke:none;fill-rule:nonzero;fill:rgb(72.941178%,47.450981%,49.019608%);fill-opacity:1;" d="M 207.550781 38.550781 L 216.449219 38.550781 L 216.449219 47.449219 L 207.550781 47.449219 L 207.550781 38.550781 "/>
<path style=" stroke:none;fill-rule:nonzero;fill:rgb(100%,100%,100%);fill-opacity:1;" d="M 61.949219 36.949219 L 68.050781 36.949219 L 68.050781 43.050781 L 61.949219 43.050781 L 61.949219 36.949219 "/>
<path style=" stroke:none;fill-rule:nonzero;fill:rgb(100%,100%,100%);fill-opacity:1;" d="M 102.210938 44.210938 L 119.789062 44.210938 L 119.789062 61.789062 L 102.210938 61.789062 L 102.210938 44.210938 "/>
<path style=" stroke:none;fill-rule:nonzero;fill:rgb(96.470588%,96.470588%,96.470588%);fill-opacity:1;" d="M 132.789062 44.789062 L 149.210938 44.789062 L 149.210938 61.210938 L 132.789062 61.210938 L 132.789062 44.789062 "/>
<path style=" stroke:none;fill-rule:nonzero;fill:rgb(100%,100%,100%);fill-opacity:1;" d="M 60.03125 45.03125 L 79.96875 45.03125 L 79.96875 64.96875 L 60.03125 64.96875 L 60.03125 45.03125 "/>
<path style=" stroke:none;fill-rule:nonzero;fill:rgb(100%,100%,100%);fill-opacity:1;" d="M 25.523438 46.523438 L 42.476562 46.523438 L 42.476562 63.476562 L 25.523438 63.476562 L 25.523438 46.523438 "/>
<path style=" stroke:none;fill-rule:nonzero;fill:rgb(73.333335%,47.450981%,48.235294%);fill-opacity:1;" d="M 195.507812 48.507812 L 212.492188 48.507812 L 212.492188 65.492188 L 195.507812 65.492188 L 195.507812 48.507812 "/>
<path style=" stroke:none;fill-rule:nonzero;fill:rgb(63.137257%,45.490196%,46.27451%);fill-opacity:1;" d="M 212.039062 49.039062 L 233.960938 49.039062 L 233.960938 70.960938 L 212.039062 70.960938 L 212.039062 49.039062 "/>
<path style=" stroke:none;fill-rule:nonzero;fill:rgb(100%,100%,100%);fill-opacity:1;" d="M 294.496094 49.496094 L 313.503906 49.496094 L 313.503906 68.503906 L 294.496094 68.503906 L 294.496094 49.496094 "/>
<path style=" stroke:none;fill-rule:nonzero;fill:rgb(45.882353%,45.09804%,49.803922%);fill-opacity:1;" d="M 160.613281 19.613281 L 167.386719 19.613281 L 167.386719 26.386719 L 160.613281 26.386719 L 160.613281 19.613281 "/>
<path style=" stroke:none;fill-rule:nonzero;fill:rgb(100%,100%,100%);fill-opacity:1;" d="M 119.859375 51.859375 L 130.140625 51.859375 L 130.140625 62.140625 L 119.859375 62.140625 L 119.859375 51.859375 "/>
<path style=" stroke:none;fill-rule:nonzero;fill:rgb(100%,100%,100%);fill-opacity:1;" d="M 416.335938 25.335938 L 423.664062 25.335938 L 423.664062 32.664062 L 416.335938 32.664062 L 416.335938 25.335938 "/>
<path style=" stroke:none;fill-rule:nonzero;fill:rgb(65.882355%,45.882353%,47.450981%);fill-opacity:1;" d="M 165.949219 52.949219 L 186.050781 52.949219 L 186.050781 73.050781 L 165.949219 73.050781 L 165.949219 52.949219 "/>
<path style=" stroke:none;fill-rule:nonzero;fill:rgb(100%,100%,100%);fill-opacity:1;" d="M 334.8125 53.8125 L 353.1875 53.8125 L 353.1875 72.1875 L 334.8125 72.1875 L 334.8125 53.8125 "/>
<path style=" stroke:none;fill-rule:nonzero;fill:rgb(53.725493%,37.64706%,44.313726%);fill-opacity:1;" d="M 233.992188 50.992188 L 250.007812 50.992188 L 250.007812 67.007812 L 233.992188 67.007812 L 233.992188 50.992188 "/>
<path style=" stroke:none;fill-rule:nonzero;fill:rgb(100%,100%,100%);fill-opacity:1;" d="M -7.921875 54.078125 L 9.921875 54.078125 L 9.921875 71.921875 L -7.921875 71.921875 L -7.921875 54.078125 "/>
<path style=" stroke:none;fill-rule:nonzero;fill:rgb(100%,100%,100%);fill-opacity:1;" d="M 9.136719 54.136719 L 22.863281 54.136719 L 22.863281 67.863281 L 9.136719 67.863281 L 9.136719 54.136719 "/>
<path style=" stroke:none;fill-rule:nonzero;fill:rgb(100%,100%,100%);fill-opacity:1;" d="M 41.628906 57.628906 L 58.371094 57.628906 L 58.371094 74.371094 L 41.628906 74.371094 L 41.628906 57.628906 "/>
<path style=" stroke:none;fill-rule:nonzero;fill:rgb(100%,100%,100%);fill-opacity:1;" d="M 314.675781 57.675781 L 327.324219 57.675781 L 327.324219 70.324219 L 314.675781 70.324219 L 314.675781 57.675781 "/>
<path style=" stroke:none;fill-rule:nonzero;fill:rgb(69.803923%,47.450981%,49.019608%);fill-opacity:1;" d="M 186.484375 51.484375 L 195.515625 51.484375 L 195.515625 60.515625 L 186.484375 60.515625 L 186.484375 51.484375 "/>
<path style=" stroke:none;fill-rule:nonzero;fill:rgb(0.392157%,1.568628%,6.27451%);fill-opacity:1;" d="M 144.703125 59.703125 L 165.296875 59.703125 L 165.296875 80.296875 L 144.703125 80.296875 L 144.703125 59.703125 "/>
<path style=" stroke:none;fill-rule:nonzero;fill:rgb(12.941177%,12.941177%,19.607843%);fill-opacity:1;" d="M 250.183594 58.183594 L 265.816406 58.183594 L 265.816406 73.816406 L 250.183594 73.816406 L 250.183594 58.183594 "/>
<path style=" stroke:none;fill-rule:nonzero;fill:rgb(100%,100%,100%);fill-opacity:1;" d="M 354.09375 59.09375 L 365.90625 59.09375 L 365.90625 70.90625 L 354.09375 70.90625 L 354.09375 59.09375 "/>
<path style=" stroke:none;fill-rule:nonzero;fill:rgb(100%,100%,100%);fill-opacity:1;" d="M 79.460938 60.460938 L 94.539062 60.460938 L 94.539062 75.539062 L 79.460938 75.539062 L 79.460938 60.460938 "/>
<path style=" stroke:none;fill-rule:nonzero;fill:rgb(100%,100%,100%);fill-opacity:1;" d="M 365.6875 59.6875 L 382.3125 59.6875 L 382.3125 76.3125 L 365.6875 76.3125 L 365.6875 59.6875 "/>
<path style=" stroke:none;fill-rule:nonzero;fill:rgb(100%,100%,100%);fill-opacity:1;" d="M 94.921875 61.921875 L 109.078125 61.921875 L 109.078125 76.078125 L 94.921875 76.078125 L 94.921875 61.921875 "/>
<path style=" stroke:none;fill-rule:nonzero;fill:rgb(100%,100%,100%);fill-opacity:1;" d="M 109.742188 62.742188 L 126.257812 62.742188 L 126.257812 79.257812 L 109.742188 79.257812 L 109.742188 62.742188 "/>
<path style=" stroke:none;fill-rule:nonzero;fill:rgb(100%,100%,100%);fill-opacity:1;" d="M -4.527344 44.472656 L 4.527344 44.472656 L 4.527344 53.527344 L -4.527344 53.527344 L -4.527344 44.472656 "/>
<path style=" stroke:none;fill-rule:nonzero;fill:rgb(44.705883%,27.450982%,25.490198%);fill-opacity:1;" d="M 186.347656 60.347656 L 195.652344 60.347656 L 195.652344 69.652344 L 186.347656 69.652344 L 186.347656 60.347656 "/>
<path style=" stroke:none;fill-rule:nonzero;fill:rgb(100%,100%,100%);fill-opacity:1;" d="M 129.464844 61.464844 L 140.535156 61.464844 L 140.535156 72.535156 L 129.464844 72.535156 L 129.464844 61.464844 "/>
<path style=" stroke:none;fill-rule:nonzero;fill:rgb(100%,100%,100%);fill-opacity:1;" d="M 416.617188 33.617188 L 423.382812 33.617188 L 423.382812 40.382812 L 416.617188 40.382812 L 416.617188 33.617188 "/>
<path style=" stroke:none;fill-rule:nonzero;fill:rgb(97.254902%,97.254902%,97.647059%);fill-opacity:1;" d="M 266.289062 62.289062 L 287.710938 62.289062 L 287.710938 83.710938 L 266.289062 83.710938 L 266.289062 62.289062 "/>
<path style=" stroke:none;fill-rule:nonzero;fill:rgb(100%,100%,100%);fill-opacity:1;" d="M 327.21875 56.21875 L 334.78125 56.21875 L 334.78125 63.78125 L 327.21875 63.78125 L 327.21875 56.21875 "/>
<path style=" stroke:none;fill-rule:nonzero;fill:rgb(100%,100%,100%);fill-opacity:1;" d="M 400.664062 62.664062 L 417.335938 62.664062 L 417.335938 79.335938 L 400.664062 79.335938 L 400.664062 62.664062 "/>
<path style=" stroke:none;fill-rule:nonzero;fill:rgb(100%,100%,100%);fill-opacity:1;" d="M 23.246094 63.246094 L 34.753906 63.246094 L 34.753906 74.753906 L 23.246094 74.753906 L 23.246094 63.246094 "/>
<path style=" stroke:none;fill-rule:nonzero;fill:rgb(100%,100%,100%);fill-opacity:1;" d="M 58.019531 65.019531 L 77.980469 65.019531 L 77.980469 84.980469 L 58.019531 84.980469 L 58.019531 65.019531 "/>
<path style=" stroke:none;fill-rule:nonzero;fill:rgb(72.549021%,46.27451%,47.843137%);fill-opacity:1;" d="M 193.753906 65.753906 L 212.246094 65.753906 L 212.246094 84.246094 L 193.753906 84.246094 L 193.753906 65.753906 "/>
<path style=" stroke:none;fill-rule:nonzero;fill:rgb(100%,100%,100%);fill-opacity:1;" d="M 383.863281 63.863281 L 400.136719 63.863281 L 400.136719 80.136719 L 383.863281 80.136719 L 383.863281 63.863281 "/>
<path style=" stroke:none;fill-rule:nonzero;fill:rgb(100%,100%,100%);fill-opacity:1;" d="M 8.335938 67.335938 L 23.664062 67.335938 L 23.664062 82.664062 L 8.335938 82.664062 L 8.335938 67.335938 "/>
<path style=" stroke:none;fill-rule:nonzero;fill:rgb(38.82353%,23.137255%,23.137255%);fill-opacity:1;" d="M 233.75 67.75 L 246.25 67.75 L 246.25 80.25 L 233.75 80.25 L 233.75 67.75 "/>
<path style=" stroke:none;fill-rule:nonzero;fill:rgb(100%,100%,100%);fill-opacity:1;" d="M 288.578125 68.578125 L 305.421875 68.578125 L 305.421875 85.421875 L 288.578125 85.421875 L 288.578125 68.578125 "/>
<path style=" stroke:none;fill-rule:nonzero;fill:rgb(100%,100%,100%);fill-opacity:1;" d="M 305.785156 69.785156 L 314.214844 69.785156 L 314.214844 78.214844 L 305.785156 78.214844 L 305.785156 69.785156 "/>
<path style=" stroke:none;fill-rule:nonzero;fill:rgb(51.372552%,37.64706%,40.000001%);fill-opacity:1;" d="M 242.664062 43.664062 L 249.335938 43.664062 L 249.335938 50.335938 L 242.664062 50.335938 L 242.664062 43.664062 "/>
<path style=" stroke:none;fill-rule:nonzero;fill:rgb(22.745098%,10.196079%,10.588235%);fill-opacity:1;" d="M 212.53125 70.53125 L 223.46875 70.53125 L 223.46875 81.46875 L 212.53125 81.46875 L 212.53125 70.53125 "/>
<path style=" stroke:none;fill-rule:nonzero;fill:rgb(100%,100%,100%);fill-opacity:1;" d="M 314.003906 70.003906 L 335.996094 70.003906 L 335.996094 91.996094 L 314.003906 91.996094 L 314.003906 70.003906 "/>
<path style=" stroke:none;fill-rule:nonzero;fill:rgb(7.843138%,5.882353%,14.901961%);fill-opacity:1;" d="M 126.921875 72.921875 L 145.078125 72.921875 L 145.078125 91.078125 L 126.921875 91.078125 L 126.921875 72.921875 "/>
<path style=" stroke:none;fill-rule:nonzero;fill:rgb(100%,100%,100%);fill-opacity:1;" d="M -6.757812 72.242188 L 6.757812 72.242188 L 6.757812 85.757812 L -6.757812 85.757812 L -6.757812 72.242188 "/>
<path style=" stroke:none;fill-rule:nonzero;fill:rgb(100%,100%,100%);fill-opacity:1;" d="M 335.582031 72.582031 L 348.417969 72.582031 L 348.417969 85.417969 L 335.582031 85.417969 L 335.582031 72.582031 "/>
<path style=" stroke:none;fill-rule:nonzero;fill:rgb(57.254905%,38.039216%,40.000001%);fill-opacity:1;" d="M 165.175781 73.175781 L 186.824219 73.175781 L 186.824219 94.824219 L 165.175781 94.824219 L 165.175781 73.175781 "/>
<path style=" stroke:none;fill-rule:nonzero;fill:rgb(100%,100%,100%);fill-opacity:1;" d="M 351.3125 71.3125 L 362.6875 71.3125 L 362.6875 82.6875 L 351.3125 82.6875 L 351.3125 71.3125 "/>
<path style=" stroke:none;fill-rule:nonzero;fill:rgb(100%,100%,100%);fill-opacity:1;" d="M 22.972656 74.972656 L 41.027344 74.972656 L 41.027344 93.027344 L 22.972656 93.027344 L 22.972656 74.972656 "/>
<path style=" stroke:none;fill-rule:nonzero;fill:rgb(12.941177%,12.54902%,18.039216%);fill-opacity:1;" d="M 245.664062 74.664062 L 264.335938 74.664062 L 264.335938 93.335938 L 245.664062 93.335938 L 245.664062 74.664062 "/>
<path style=" stroke:none;fill-rule:nonzero;fill:rgb(100%,100%,100%);fill-opacity:1;" d="M 41.304688 75.304688 L 58.695312 75.304688 L 58.695312 92.695312 L 41.304688 92.695312 L 41.304688 75.304688 "/>
<path style=" stroke:none;fill-rule:nonzero;fill:rgb(40.784314%,31.37255%,33.333334%);fill-opacity:1;" d="M 223.582031 70.582031 L 230.417969 70.582031 L 230.417969 77.417969 L 223.582031 77.417969 L 223.582031 70.582031 "/>
<path style=" stroke:none;fill-rule:nonzero;fill:rgb(100%,100%,100%);fill-opacity:1;" d="M 78.410156 76.410156 L 93.589844 76.410156 L 93.589844 91.589844 L 78.410156 91.589844 L 78.410156 76.410156 "/>
<path style=" stroke:none;fill-rule:nonzero;fill:rgb(100%,100%,100%);fill-opacity:1;" d="M 34.285156 63.285156 L 41.714844 63.285156 L 41.714844 70.714844 L 34.285156 70.714844 L 34.285156 63.285156 "/>
<path style=" stroke:none;fill-rule:nonzero;fill:rgb(100%,100%,100%);fill-opacity:1;" d="M 93.054688 77.054688 L 112.945312 77.054688 L 112.945312 96.945312 L 93.054688 96.945312 L 93.054688 77.054688 "/>
<path style=" stroke:none;fill-rule:nonzero;fill:rgb(100%,100%,100%);fill-opacity:1;" d="M 362.652344 76.652344 L 377.347656 76.652344 L 377.347656 91.347656 L 362.652344 91.347656 L 362.652344 76.652344 "/>
<path style=" stroke:none;fill-rule:nonzero;fill:rgb(53.333336%,32.156864%,34.509805%);fill-opacity:1;" d="M 186.585938 69.585938 L 193.414062 69.585938 L 193.414062 76.414062 L 186.585938 76.414062 L 186.585938 69.585938 "/>
<path style=" stroke:none;fill-rule:nonzero;fill:rgb(59.215689%,37.254903%,36.862746%);fill-opacity:1;" d="M 223.820312 78.820312 L 230.179688 78.820312 L 230.179688 85.179688 L 223.820312 85.179688 L 223.820312 78.820312 "/>
<path style=" stroke:none;fill-rule:nonzero;fill:rgb(100%,100%,100%);fill-opacity:1;" d="M 393.648438 79.648438 L 412.351562 79.648438 L 412.351562 98.351562 L 393.648438 98.351562 L 393.648438 79.648438 "/>
<path style=" stroke:none;fill-rule:nonzero;fill:rgb(7.450981%,3.921569%,7.058824%);fill-opacity:1;" d="M 145.195312 81.195312 L 164.804688 81.195312 L 164.804688 100.804688 L 145.195312 100.804688 L 145.195312 81.195312 "/>
<path style=" stroke:none;fill-rule:nonzero;fill:rgb(100%,100%,100%);fill-opacity:1;" d="M 112.277344 79.277344 L 123.722656 79.277344 L 123.722656 90.722656 L 112.277344 90.722656 L 112.277344 79.277344 "/>
<path style=" stroke:none;fill-rule:nonzero;fill:rgb(100%,100%,100%);fill-opacity:1;" d="M 413.363281 79.363281 L 424.636719 79.363281 L 424.636719 90.636719 L 413.363281 90.636719 L 413.363281 79.363281 "/>
<path style=" stroke:none;fill-rule:nonzero;fill:rgb(58.039218%,35.294119%,34.901962%);fill-opacity:1;" d="M 230.546875 80.546875 L 239.453125 80.546875 L 239.453125 89.453125 L 230.546875 89.453125 L 230.546875 80.546875 "/>
<path style=" stroke:none;fill-rule:nonzero;fill:rgb(85.490197%,66.666669%,70.19608%);fill-opacity:1;" d="M 202.378906 83.378906 L 223.621094 83.378906 L 223.621094 104.621094 L 202.378906 104.621094 L 202.378906 83.378906 "/>
<path style=" stroke:none;fill-rule:nonzero;fill:rgb(100%,100%,100%);fill-opacity:1;" d="M 305.3125 79.3125 L 314.6875 79.3125 L 314.6875 88.6875 L 305.3125 88.6875 L 305.3125 79.3125 "/>
<path style=" stroke:none;fill-rule:nonzero;fill:rgb(100%,100%,100%);fill-opacity:1;" d="M 3.976562 83.976562 L 20.023438 83.976562 L 20.023438 100.023438 L 3.976562 100.023438 L 3.976562 83.976562 "/>
<path style=" stroke:none;fill-rule:nonzero;fill:rgb(100%,100%,100%);fill-opacity:1;" d="M 264.503906 83.503906 L 281.496094 83.503906 L 281.496094 100.496094 L 264.503906 100.496094 L 264.503906 83.503906 "/>
<path style=" stroke:none;fill-rule:nonzero;fill:rgb(100%,100%,100%);fill-opacity:1;" d="M 378.703125 81.703125 L 389.296875 81.703125 L 389.296875 92.296875 L 378.703125 92.296875 L 378.703125 81.703125 "/>
<path style=" stroke:none;fill-rule:nonzero;fill:rgb(100%,100%,100%);fill-opacity:1;" d="M 347.910156 82.910156 L 360.089844 82.910156 L 360.089844 95.089844 L 347.910156 95.089844 L 347.910156 82.910156 "/>
<path style=" stroke:none;fill-rule:nonzero;fill:rgb(100%,100%,100%);fill-opacity:1;" d="M 59.269531 84.269531 L 74.730469 84.269531 L 74.730469 99.730469 L 59.269531 99.730469 L 59.269531 84.269531 "/>
<path style=" stroke:none;fill-rule:nonzero;fill:rgb(77.64706%,50.196081%,53.333336%);fill-opacity:1;" d="M 186.351562 85.351562 L 197.648438 85.351562 L 197.648438 96.648438 L 186.351562 96.648438 L 186.351562 85.351562 "/>
<path style=" stroke:none;fill-rule:nonzero;fill:rgb(100%,100%,100%);fill-opacity:1;" d="M 282.734375 85.734375 L 295.265625 85.734375 L 295.265625 98.265625 L 282.734375 98.265625 L 282.734375 85.734375 "/>
<path style=" stroke:none;fill-rule:nonzero;fill:rgb(100%,100%,100%);fill-opacity:1;" d="M 296.328125 88.328125 L 315.671875 88.328125 L 315.671875 107.671875 L 296.328125 107.671875 L 296.328125 88.328125 "/>
<path style=" stroke:none;fill-rule:nonzero;fill:rgb(100%,100%,100%);fill-opacity:1;" d="M 335.734375 86.734375 L 344.265625 86.734375 L 344.265625 95.265625 L 335.734375 95.265625 L 335.734375 86.734375 "/>
<path style=" stroke:none;fill-rule:nonzero;fill:rgb(100%,100%,100%);fill-opacity:1;" d="M 112.960938 90.960938 L 127.039062 90.960938 L 127.039062 105.039062 L 112.960938 105.039062 L 112.960938 90.960938 "/>
<path style=" stroke:none;fill-rule:nonzero;fill:rgb(74.117649%,55.29412%,54.509807%);fill-opacity:1;" d="M 223.035156 90.035156 L 244.964844 90.035156 L 244.964844 111.964844 L 223.035156 111.964844 L 223.035156 90.035156 "/>
<path style=" stroke:none;fill-rule:nonzero;fill:rgb(100%,100%,100%);fill-opacity:1;" d="M 413.324219 90.324219 L 420.675781 90.324219 L 420.675781 97.675781 L 413.324219 97.675781 L 413.324219 90.324219 "/>
<path style=" stroke:none;fill-rule:nonzero;fill:rgb(67.058825%,43.921569%,45.09804%);fill-opacity:1;" d="M 186.140625 77.140625 L 193.859375 77.140625 L 193.859375 84.859375 L 186.140625 84.859375 L 186.140625 77.140625 "/>
<path style=" stroke:none;fill-rule:nonzero;fill:rgb(100%,100%,100%);fill-opacity:1;" d="M 41.890625 92.890625 L 48.109375 92.890625 L 48.109375 99.109375 L 41.890625 99.109375 L 41.890625 92.890625 "/>
<path style=" stroke:none;fill-rule:nonzero;fill:rgb(100%,100%,100%);fill-opacity:1;" d="M 74.21875 91.21875 L 85.78125 91.21875 L 85.78125 102.78125 L 74.21875 102.78125 L 74.21875 91.21875 "/>
<path style=" stroke:none;fill-rule:nonzero;fill:rgb(100%,100%,100%);fill-opacity:1;" d="M 128.441406 92.441406 L 141.558594 92.441406 L 141.558594 105.558594 L 128.441406 105.558594 L 128.441406 92.441406 "/>
<path style=" stroke:none;fill-rule:nonzero;fill:rgb(100%,100%,100%);fill-opacity:1;" d="M 49.753906 92.753906 L 56.246094 92.753906 L 56.246094 99.246094 L 49.753906 99.246094 L 49.753906 92.753906 "/>
<path style=" stroke:none;fill-rule:nonzero;fill:rgb(100%,100%,100%);fill-opacity:1;" d="M 316.953125 91.953125 L 327.046875 91.953125 L 327.046875 102.046875 L 316.953125 102.046875 L 316.953125 91.953125 "/>
<path style=" stroke:none;fill-rule:nonzero;fill:rgb(100%,100%,100%);fill-opacity:1;" d="M 357.164062 92.164062 L 378.835938 92.164062 L 378.835938 113.835938 L 357.164062 113.835938 L 357.164062 92.164062 "/>
<path style=" stroke:none;fill-rule:nonzero;fill:rgb(100%,100%,100%);fill-opacity:1;" d="M 20.597656 93.597656 L 39.402344 93.597656 L 39.402344 112.402344 L 20.597656 112.402344 L 20.597656 93.597656 "/>
<path style=" stroke:none;fill-rule:nonzero;fill:rgb(100%,100%,100%);fill-opacity:1;" d="M 378.058594 92.058594 L 393.941406 92.058594 L 393.941406 107.941406 L 378.058594 107.941406 L 378.058594 92.058594 "/>
<path style=" stroke:none;fill-rule:nonzero;fill:rgb(100%,100%,100%);fill-opacity:1;" d="M -3.109375 86.890625 L 3.109375 86.890625 L 3.109375 93.109375 L -3.109375 93.109375 L -3.109375 86.890625 "/>
<path style=" stroke:none;fill-rule:nonzero;fill:rgb(80.000001%,57.254905%,60.784316%);fill-opacity:1;" d="M 164.25 94.25 L 173.75 94.25 L 173.75 103.75 L 164.25 103.75 L 164.25 94.25 "/>
<path style=" stroke:none;fill-rule:nonzero;fill:rgb(46.27451%,33.725491%,36.862746%);fill-opacity:1;" d="M 244.289062 93.289062 L 263.710938 93.289062 L 263.710938 112.710938 L 244.289062 112.710938 L 244.289062 93.289062 "/>
<path style=" stroke:none;fill-rule:nonzero;fill:rgb(100%,100%,100%);fill-opacity:1;" d="M 84.699219 96.699219 L 105.300781 96.699219 L 105.300781 117.300781 L 84.699219 117.300781 L 84.699219 96.699219 "/>
<path style=" stroke:none;fill-rule:nonzero;fill:rgb(71.764708%,44.313726%,47.450981%);fill-opacity:1;" d="M 174.679688 95.679688 L 195.320312 95.679688 L 195.320312 116.320312 L 174.679688 116.320312 L 174.679688 95.679688 "/>
<path style=" stroke:none;fill-rule:nonzero;fill:rgb(100%,100%,100%);fill-opacity:1;" d="M 327.074219 95.074219 L 336.925781 95.074219 L 336.925781 104.925781 L 327.074219 104.925781 L 327.074219 95.074219 "/>
<path style=" stroke:none;fill-rule:nonzero;fill:rgb(100%,100%,100%);fill-opacity:1;" d="M 336.699219 96.699219 L 355.300781 96.699219 L 355.300781 115.300781 L 336.699219 115.300781 L 336.699219 96.699219 "/>
<path style=" stroke:none;fill-rule:nonzero;fill:rgb(100%,100%,100%);fill-opacity:1;" d="M 411.105469 97.105469 L 424.894531 97.105469 L 424.894531 110.894531 L 411.105469 110.894531 L 411.105469 97.105469 "/>
<path style=" stroke:none;fill-rule:nonzero;fill:rgb(100%,100%,100%);fill-opacity:1;" d="M 280.054688 98.054688 L 293.945312 98.054688 L 293.945312 111.945312 L 280.054688 111.945312 L 280.054688 98.054688 "/>
<path style=" stroke:none;fill-rule:nonzero;fill:rgb(100%,100%,100%);fill-opacity:1;" d="M 394.65625 98.65625 L 405.34375 98.65625 L 405.34375 109.34375 L 394.65625 109.34375 L 394.65625 98.65625 "/>
<path style=" stroke:none;fill-rule:nonzero;fill:rgb(100%,100%,100%);fill-opacity:1;" d="M 40.539062 99.539062 L 61.460938 99.539062 L 61.460938 120.460938 L 40.539062 120.460938 L 40.539062 99.539062 "/>
<path style=" stroke:none;fill-rule:nonzero;fill:rgb(100%,100%,100%);fill-opacity:1;" d="M 287.777344 61.777344 L 294.222656 61.777344 L 294.222656 68.222656 L 287.777344 68.222656 L 287.777344 61.777344 "/>
<path style=" stroke:none;fill-rule:nonzero;fill:rgb(100%,100%,100%);fill-opacity:1;" d="M -3.289062 93.710938 L 3.289062 93.710938 L 3.289062 100.289062 L -3.289062 100.289062 L -3.289062 93.710938 "/>
<path style=" stroke:none;fill-rule:nonzero;fill:rgb(100%,100%,100%);fill-opacity:1;" d="M -4.78125 100.21875 L 6.78125 100.21875 L 6.78125 111.78125 L -4.78125 111.78125 L -4.78125 100.21875 "/>
<path style=" stroke:none;fill-rule:nonzero;fill:rgb(74.901962%,61.176473%,64.705884%);fill-opacity:1;" d="M 140.554688 100.554688 L 159.445312 100.554688 L 159.445312 119.445312 L 140.554688 119.445312 L 140.554688 100.554688 "/>
<path style=" stroke:none;fill-rule:nonzero;fill:rgb(100%,100%,100%);fill-opacity:1;" d="M 62.53125 102.53125 L 79.46875 102.53125 L 79.46875 119.46875 L 62.53125 119.46875 L 62.53125 102.53125 "/>
<path style=" stroke:none;fill-rule:nonzero;fill:rgb(100%,100%,100%);fill-opacity:1;" d="M 7.644531 100.644531 L 16.355469 100.644531 L 16.355469 109.355469 L 7.644531 109.355469 L 7.644531 100.644531 "/>
<path style=" stroke:none;fill-rule:nonzero;fill:rgb(98.823529%,98.039216%,98.823529%);fill-opacity:1;" d="M 264.609375 100.609375 L 273.390625 100.609375 L 273.390625 109.390625 L 264.609375 109.390625 L 264.609375 100.609375 "/>
<path style=" stroke:none;fill-rule:nonzero;fill:rgb(78.823531%,56.470591%,60.000002%);fill-opacity:1;" d="M 159.257812 103.257812 L 170.742188 103.257812 L 170.742188 114.742188 L 159.257812 114.742188 L 159.257812 103.257812 "/>
<path style=" stroke:none;fill-rule:nonzero;fill:rgb(67.450982%,44.705883%,44.313726%);fill-opacity:1;" d="M 196.441406 104.441406 L 211.558594 104.441406 L 211.558594 119.558594 L 196.441406 119.558594 L 196.441406 104.441406 "/>
<path style=" stroke:none;fill-rule:nonzero;fill:rgb(100%,100%,100%);fill-opacity:1;" d="M 316.359375 103.359375 L 325.640625 103.359375 L 325.640625 112.640625 L 316.359375 112.640625 L 316.359375 103.359375 "/>
<path style=" stroke:none;fill-rule:nonzero;fill:rgb(100%,100%,100%);fill-opacity:1;" d="M 106.046875 105.046875 L 113.953125 105.046875 L 113.953125 112.953125 L 106.046875 112.953125 L 106.046875 105.046875 "/>
<path style=" stroke:none;fill-rule:nonzero;fill:rgb(100%,100%,100%);fill-opacity:1;" d="M 113.210938 106.210938 L 128.789062 106.210938 L 128.789062 121.789062 L 113.210938 121.789062 L 113.210938 106.210938 "/>
<path style=" stroke:none;fill-rule:nonzero;fill:rgb(100%,100%,100%);fill-opacity:1;" d="M 291.011719 107.011719 L 312.988281 107.011719 L 312.988281 128.988281 L 291.011719 128.988281 L 291.011719 107.011719 "/>
<path style=" stroke:none;fill-rule:nonzero;fill:rgb(100%,100%,100%);fill-opacity:1;" d="M 378.296875 107.296875 L 399.703125 107.296875 L 399.703125 128.703125 L 378.296875 128.703125 L 378.296875 107.296875 "/>
<path style=" stroke:none;fill-rule:nonzero;fill:rgb(100%,100%,100%);fill-opacity:1;" d="M 261.933594 109.933594 L 280.066406 109.933594 L 280.066406 128.066406 L 261.933594 128.066406 L 261.933594 109.933594 "/>
<path style=" stroke:none;fill-rule:nonzero;fill:rgb(72.941178%,50.588238%,51.764709%);fill-opacity:1;" d="M 211.890625 104.890625 L 222.109375 104.890625 L 222.109375 115.109375 L 211.890625 115.109375 L 211.890625 104.890625 "/>
<path style=" stroke:none;fill-rule:nonzero;fill:rgb(100%,100%,100%);fill-opacity:1;" d="M 399.894531 109.894531 L 418.105469 109.894531 L 418.105469 128.105469 L 399.894531 128.105469 L 399.894531 109.894531 "/>
<path style=" stroke:none;fill-rule:nonzero;fill:rgb(100%,100%,100%);fill-opacity:1;" d="M 1.269531 110.269531 L 16.730469 110.269531 L 16.730469 125.730469 L 1.269531 125.730469 L 1.269531 110.269531 "/>
<path style=" stroke:none;fill-rule:nonzero;fill:rgb(71.372551%,48.627451%,50.588238%);fill-opacity:1;" d="M 221.703125 111.703125 L 240.296875 111.703125 L 240.296875 130.296875 L 221.703125 130.296875 L 221.703125 111.703125 "/>
<path style=" stroke:none;fill-rule:nonzero;fill:rgb(100%,100%,100%);fill-opacity:1;" d="M 16.636719 112.636719 L 33.363281 112.636719 L 33.363281 129.363281 L 16.636719 129.363281 L 16.636719 112.636719 "/>
<path style=" stroke:none;fill-rule:nonzero;fill:rgb(84.705883%,67.058825%,69.803923%);fill-opacity:1;" d="M 241.316406 112.316406 L 258.683594 112.316406 L 258.683594 129.683594 L 241.316406 129.683594 L 241.316406 112.316406 "/>
<path style=" stroke:none;fill-rule:nonzero;fill:rgb(100%,100%,100%);fill-opacity:1;" d="M 326.351562 104.351562 L 335.648438 104.351562 L 335.648438 113.648438 L 326.351562 113.648438 L 326.351562 104.351562 "/>
<path style=" stroke:none;fill-rule:nonzero;fill:rgb(100%,100%,100%);fill-opacity:1;" d="M 105.929688 96.929688 L 112.070312 96.929688 L 112.070312 103.070312 L 105.929688 103.070312 L 105.929688 96.929688 "/>
<path style=" stroke:none;fill-rule:nonzero;fill:rgb(67.843139%,43.921569%,45.882353%);fill-opacity:1;" d="M 195.308594 96.308594 L 202.691406 96.308594 L 202.691406 103.691406 L 195.308594 103.691406 L 195.308594 96.308594 "/>
<path style=" stroke:none;fill-rule:nonzero;fill:rgb(100%,100%,100%);fill-opacity:1;" d="M 129.726562 106.726562 L 138.273438 106.726562 L 138.273438 115.273438 L 129.726562 115.273438 L 129.726562 106.726562 "/>
<path style=" stroke:none;fill-rule:nonzero;fill:rgb(100%,100%,100%);fill-opacity:1;" d="M 312.808594 112.808594 L 331.191406 112.808594 L 331.191406 131.191406 L 312.808594 131.191406 L 312.808594 112.808594 "/>
<path style=" stroke:none;fill-rule:nonzero;fill:rgb(100%,100%,100%);fill-opacity:1;" d="M 352.457031 113.457031 L 371.542969 113.457031 L 371.542969 132.542969 L 352.457031 132.542969 L 352.457031 113.457031 "/>
<path style=" stroke:none;fill-rule:nonzero;fill:rgb(65.490198%,41.568628%,44.705883%);fill-opacity:1;" d="M 159.292969 115.292969 L 176.707031 115.292969 L 176.707031 132.707031 L 159.292969 132.707031 L 159.292969 115.292969 "/>
<path style=" stroke:none;fill-rule:nonzero;fill:rgb(50.588238%,24.313726%,27.450982%);fill-opacity:1;" d="M 177.113281 116.113281 L 198.886719 116.113281 L 198.886719 137.886719 L 177.113281 137.886719 L 177.113281 116.113281 "/>
<path style=" stroke:none;fill-rule:nonzero;fill:rgb(100%,100%,100%);fill-opacity:1;" d="M 74.152344 117.152344 L 95.847656 117.152344 L 95.847656 138.847656 L 74.152344 138.847656 L 74.152344 117.152344 "/>
<path style=" stroke:none;fill-rule:nonzero;fill:rgb(100%,100%,100%);fill-opacity:1;" d="M 331.082031 116.082031 L 346.917969 116.082031 L 346.917969 131.917969 L 331.082031 131.917969 L 331.082031 116.082031 "/>
<path style=" stroke:none;fill-rule:nonzero;fill:rgb(100%,100%,100%);fill-opacity:1;" d="M 51.074219 119.074219 L 72.925781 119.074219 L 72.925781 140.925781 L 51.074219 140.925781 L 51.074219 119.074219 "/>
<path style=" stroke:none;fill-rule:nonzero;fill:rgb(100%,100%,100%);fill-opacity:1;" d="M 96.617188 117.617188 L 115.382812 117.617188 L 115.382812 136.382812 L 96.617188 136.382812 L 96.617188 117.617188 "/>
<path style=" stroke:none;fill-rule:nonzero;fill:rgb(100%,100%,100%);fill-opacity:1;" d="M 129.753906 118.753906 L 148.246094 118.753906 L 148.246094 137.246094 L 129.753906 137.246094 L 129.753906 118.753906 "/>
<path style=" stroke:none;fill-rule:nonzero;fill:rgb(100%,100%,100%);fill-opacity:1;" d="M 34.589844 120.589844 L 51.410156 120.589844 L 51.410156 137.410156 L 34.589844 137.410156 L 34.589844 120.589844 "/>
<path style=" stroke:none;fill-rule:nonzero;fill:rgb(64.313728%,44.313726%,46.27451%);fill-opacity:1;" d="M 199.855469 119.855469 L 216.144531 119.855469 L 216.144531 136.144531 L 199.855469 136.144531 L 199.855469 119.855469 "/>
<path style=" stroke:none;fill-rule:nonzero;fill:rgb(100%,100%,100%);fill-opacity:1;" d="M 280.386719 112.386719 L 291.613281 112.386719 L 291.613281 123.613281 L 280.386719 123.613281 L 280.386719 112.386719 "/>
<path style=" stroke:none;fill-rule:nonzero;fill:rgb(100%,100%,100%);fill-opacity:1;" d="M -7.207031 125.792969 L 7.207031 125.792969 L 7.207031 140.207031 L -7.207031 140.207031 L -7.207031 125.792969 "/>
<path style=" stroke:none;fill-rule:nonzero;fill:rgb(100%,100%,100%);fill-opacity:1;" d="M 253.371094 128.371094 L 268.628906 128.371094 L 268.628906 143.628906 L 253.371094 143.628906 L 253.371094 128.371094 "/>
<path style=" stroke:none;fill-rule:nonzero;fill:rgb(100%,100%,100%);fill-opacity:1;" d="M 272.125 127.125 L 291.875 127.125 L 291.875 146.875 L 272.125 146.875 L 272.125 127.125 "/>
<path style=" stroke:none;fill-rule:nonzero;fill:rgb(100%,100%,100%);fill-opacity:1;" d="M 291.835938 128.835938 L 306.164062 128.835938 L 306.164062 143.164062 L 291.835938 143.164062 L 291.835938 128.835938 "/>
<path style=" stroke:none;fill-rule:nonzero;fill:rgb(100%,100%,100%);fill-opacity:1;" d="M 371.199219 128.199219 L 386.800781 128.199219 L 386.800781 143.800781 L 371.199219 143.800781 L 371.199219 128.199219 "/>
<path style=" stroke:none;fill-rule:nonzero;fill:rgb(55.686277%,38.431373%,39.215687%);fill-opacity:1;" d="M 149.835938 119.835938 L 158.164062 119.835938 L 158.164062 128.164062 L 149.835938 128.164062 L 149.835938 119.835938 "/>
<path style=" stroke:none;fill-rule:nonzero;fill:rgb(100%,100%,100%);fill-opacity:1;" d="M 116.308594 121.308594 L 127.691406 121.308594 L 127.691406 132.691406 L 116.308594 132.691406 L 116.308594 121.308594 "/>
<path style=" stroke:none;fill-rule:nonzero;fill:rgb(100%,100%,100%);fill-opacity:1;" d="M 7.988281 125.988281 L 16.011719 125.988281 L 16.011719 134.011719 L 7.988281 134.011719 L 7.988281 125.988281 "/>
<path style=" stroke:none;fill-rule:nonzero;fill:rgb(100%,100%,100%);fill-opacity:1;" d="M 16.539062 129.539062 L 29.460938 129.539062 L 29.460938 142.460938 L 16.539062 142.460938 L 16.539062 129.539062 "/>
<path style=" stroke:none;fill-rule:nonzero;fill:rgb(47.058824%,33.333334%,36.078432%);fill-opacity:1;" d="M 235.226562 129.226562 L 250.773438 129.226562 L 250.773438 144.773438 L 235.226562 144.773438 L 235.226562 129.226562 "/>
<path style=" stroke:none;fill-rule:nonzero;fill:rgb(100%,100%,100%);fill-opacity:1;" d="M 387.417969 129.417969 L 408.582031 129.417969 L 408.582031 150.582031 L 387.417969 150.582031 L 387.417969 129.417969 "/>
<path style=" stroke:none;fill-rule:nonzero;fill:rgb(31.37255%,17.254902%,19.215687%);fill-opacity:1;" d="M 149.238281 129.238281 L 158.761719 129.238281 L 158.761719 138.761719 L 149.238281 138.761719 L 149.238281 129.238281 "/>
<path style=" stroke:none;fill-rule:nonzero;fill:rgb(100%,100%,100%);fill-opacity:1;" d="M 408.832031 128.832031 L 425.167969 128.832031 L 425.167969 145.167969 L 408.832031 145.167969 L 408.832031 128.832031 "/>
<path style=" stroke:none;fill-rule:nonzero;fill:rgb(74.901962%,51.764709%,53.333336%);fill-opacity:1;" d="M 217.667969 131.667969 L 230.332031 131.667969 L 230.332031 144.332031 L 217.667969 144.332031 L 217.667969 131.667969 "/>
<path style=" stroke:none;fill-rule:nonzero;fill:rgb(100%,100%,100%);fill-opacity:1;" d="M 306.851562 131.851562 L 325.148438 131.851562 L 325.148438 150.148438 L 306.851562 150.148438 L 306.851562 131.851562 "/>
<path style=" stroke:none;fill-rule:nonzero;fill:rgb(100%,100%,100%);fill-opacity:1;" d="M 326.90625 131.90625 L 347.09375 131.90625 L 347.09375 152.09375 L 326.90625 152.09375 L 326.90625 131.90625 "/>
<path style=" stroke:none;fill-rule:nonzero;fill:rgb(74.509805%,50.980395%,52.549022%);fill-opacity:1;" d="M 158.976562 132.976562 L 179.023438 132.976562 L 179.023438 153.023438 L 158.976562 153.023438 L 158.976562 132.976562 "/>
<path style=" stroke:none;fill-rule:nonzero;fill:rgb(100%,100%,100%);fill-opacity:1;" d="M 116.285156 132.285156 L 127.714844 132.285156 L 127.714844 143.714844 L 116.285156 143.714844 L 116.285156 132.285156 "/>
<path style=" stroke:none;fill-rule:nonzero;fill:rgb(100%,100%,100%);fill-opacity:1;" d="M 348.140625 133.140625 L 363.859375 133.140625 L 363.859375 148.859375 L 348.140625 148.859375 L 348.140625 133.140625 "/>
<path style=" stroke:none;fill-rule:nonzero;fill:rgb(100%,100%,100%);fill-opacity:1;" d="M 28.371094 137.371094 L 49.628906 137.371094 L 49.628906 158.628906 L 28.371094 158.628906 L 28.371094 137.371094 "/>
<path style=" stroke:none;fill-rule:nonzero;fill:rgb(100%,100%,100%);fill-opacity:1;" d="M 327.8125 63.8125 L 334.1875 63.8125 L 334.1875 70.1875 L 327.8125 70.1875 L 327.8125 63.8125 "/>
<path style=" stroke:none;fill-rule:nonzero;fill:rgb(100%,100%,100%);fill-opacity:1;" d="M 95.730469 136.730469 L 108.269531 136.730469 L 108.269531 149.269531 L 95.730469 149.269531 L 95.730469 136.730469 "/>
<path style=" stroke:none;fill-rule:nonzero;fill:rgb(100%,100%,100%);fill-opacity:1;" d="M 126.046875 137.046875 L 143.953125 137.046875 L 143.953125 154.953125 L 126.046875 154.953125 L 126.046875 137.046875 "/>
<path style=" stroke:none;fill-rule:nonzero;fill:rgb(62.352943%,32.941177%,36.862746%);fill-opacity:1;" d="M 193.308594 136.308594 L 208.691406 136.308594 L 208.691406 151.691406 L 193.308594 151.691406 L 193.308594 136.308594 "/>
<path style=" stroke:none;fill-rule:nonzero;fill:rgb(75.294119%,52.941179%,56.470591%);fill-opacity:1;" d="M 179.570312 137.570312 L 192.429688 137.570312 L 192.429688 150.429688 L 179.570312 150.429688 L 179.570312 137.570312 "/>
<path style=" stroke:none;fill-rule:nonzero;fill:rgb(100%,100%,100%);fill-opacity:1;" d="M 273.242188 101.242188 L 280.757812 101.242188 L 280.757812 108.757812 L 273.242188 108.757812 L 273.242188 101.242188 "/>
<path style=" stroke:none;fill-rule:nonzero;fill:rgb(100%,100%,100%);fill-opacity:1;" d="M 7.054688 134.054688 L 16.945312 134.054688 L 16.945312 143.945312 L 7.054688 143.945312 L 7.054688 134.054688 "/>
<path style=" stroke:none;fill-rule:nonzero;fill:rgb(100%,100%,100%);fill-opacity:1;" d="M 69.417969 138.417969 L 86.582031 138.417969 L 86.582031 155.582031 L 69.417969 155.582031 L 69.417969 138.417969 "/>
<path style=" stroke:none;fill-rule:nonzero;fill:rgb(100%,100%,100%);fill-opacity:1;" d="M -9.316406 142.683594 L 11.316406 142.683594 L 11.316406 163.316406 L -9.316406 163.316406 L -9.316406 142.683594 "/>
<path style=" stroke:none;fill-rule:nonzero;fill:rgb(33.725491%,27.450982%,32.156864%);fill-opacity:1;" d="M 144.355469 139.355469 L 155.644531 139.355469 L 155.644531 150.644531 L 144.355469 150.644531 L 144.355469 139.355469 "/>
<path style=" stroke:none;fill-rule:nonzero;fill:rgb(100%,100%,100%);fill-opacity:1;" d="M 49.710938 141.710938 L 62.289062 141.710938 L 62.289062 154.289062 L 49.710938 154.289062 L 49.710938 141.710938 "/>
<path style=" stroke:none;fill-rule:nonzero;fill:rgb(100%,100%,100%);fill-opacity:1;" d="M 11.242188 143.242188 L 26.757812 143.242188 L 26.757812 158.757812 L 11.242188 158.757812 L 11.242188 143.242188 "/>
<path style=" stroke:none;fill-rule:nonzero;fill:rgb(100%,100%,100%);fill-opacity:1;" d="M 108.820312 144.820312 L 123.179688 144.820312 L 123.179688 159.179688 L 108.820312 159.179688 L 108.820312 144.820312 "/>
<path style=" stroke:none;fill-rule:nonzero;fill:rgb(65.490198%,44.313726%,49.411765%);fill-opacity:1;" d="M 209.550781 144.550781 L 226.449219 144.550781 L 226.449219 161.449219 L 209.550781 161.449219 L 209.550781 144.550781 "/>
<path style=" stroke:none;fill-rule:nonzero;fill:rgb(37.64706%,30.588236%,37.64706%);fill-opacity:1;" d="M 241.175781 143.175781 L 262.824219 143.175781 L 262.824219 164.824219 L 241.175781 164.824219 L 241.175781 143.175781 "/>
<path style=" stroke:none;fill-rule:nonzero;fill:rgb(83.137256%,68.627453%,72.549021%);fill-opacity:1;" d="M 227.246094 144.246094 L 238.753906 144.246094 L 238.753906 155.753906 L 227.246094 155.753906 L 227.246094 144.246094 "/>
<path style=" stroke:none;fill-rule:nonzero;fill:rgb(100%,100%,100%);fill-opacity:1;" d="M 289.695312 143.695312 L 306.304688 143.695312 L 306.304688 160.304688 L 289.695312 160.304688 L 289.695312 143.695312 "/>
<path style=" stroke:none;fill-rule:nonzero;fill:rgb(100%,100%,100%);fill-opacity:1;" d="M 362.480469 143.480469 L 379.519531 143.480469 L 379.519531 160.519531 L 362.480469 160.519531 L 362.480469 143.480469 "/>
<path style=" stroke:none;fill-rule:nonzero;fill:rgb(100%,100%,100%);fill-opacity:1;" d="M 263.28125 146.28125 L 276.71875 146.28125 L 276.71875 159.71875 L 263.28125 159.71875 L 263.28125 146.28125 "/>
<path style=" stroke:none;fill-rule:nonzero;fill:rgb(100%,100%,100%);fill-opacity:1;" d="M 409.242188 145.242188 L 420.757812 145.242188 L 420.757812 156.757812 L 409.242188 156.757812 L 409.242188 145.242188 "/>
</g>
</svg>
